<?xml version="1.0" encoding="UTF-8"?> <svg xmlns="http://www.w3.org/2000/svg" width="246" height="200" viewBox="0 0 246 200" fill="none"> <path d="M127.078 123.419H118.752C117.985 123.419 117.249 123.724 116.706 124.266C116.164 124.809 115.859 125.545 115.859 126.312C115.859 127.079 116.164 127.815 116.706 128.357C117.249 128.9 117.985 129.205 118.752 129.205H127.078C127.846 129.205 128.582 128.9 129.124 128.357C129.667 127.815 129.971 127.079 129.971 126.312C129.971 125.545 129.667 124.809 129.124 124.266C128.582 123.724 127.846 123.419 127.078 123.419V123.419Z" fill="white"></path> <path d="M225.374 100.203H219.714C218.946 100.203 218.211 100.508 217.668 101.05C217.126 101.593 216.821 102.329 216.821 103.096C216.821 103.863 217.126 104.599 217.668 105.142C218.211 105.684 218.946 105.989 219.714 105.989H225.374C226.141 105.989 226.877 105.684 227.42 105.142C227.962 104.599 228.267 103.863 228.267 103.096C228.267 102.329 227.962 101.593 227.42 101.05C226.877 100.508 226.141 100.203 225.374 100.203V100.203Z" fill="white"></path> <path d="M225.374 108.844H219.714C218.946 108.844 218.211 109.149 217.668 109.691C217.126 110.234 216.821 110.969 216.821 111.737C216.821 112.504 217.126 113.24 217.668 113.782C218.211 114.325 218.946 114.63 219.714 114.63H225.374C226.141 114.63 226.877 114.325 227.42 113.782C227.962 113.24 228.267 112.504 228.267 111.737C228.267 110.969 227.962 110.234 227.42 109.691C226.877 109.149 226.141 108.844 225.374 108.844V108.844Z" fill="white"></path> <path d="M225.374 117.483H219.714C218.946 117.483 218.211 117.788 217.668 118.331C217.126 118.873 216.821 119.609 216.821 120.376C216.821 121.144 217.126 121.879 217.668 122.422C218.211 122.964 218.946 123.269 219.714 123.269H225.374C226.141 123.269 226.877 122.964 227.42 122.422C227.962 121.879 228.267 121.144 228.267 120.376C228.267 119.609 227.962 118.873 227.42 118.331C226.877 117.788 226.141 117.483 225.374 117.483V117.483Z" fill="white"></path> <path d="M206.715 100.203H201.536C200.769 100.203 200.033 100.508 199.491 101.05C198.948 101.593 198.644 102.329 198.644 103.096C198.644 103.863 198.948 104.599 199.491 105.142C200.033 105.684 200.769 105.989 201.536 105.989H206.715C207.482 105.989 208.218 105.684 208.76 105.142C209.303 104.599 209.608 103.863 209.608 103.096C209.608 102.329 209.303 101.593 208.76 101.05C208.218 100.508 207.482 100.203 206.715 100.203V100.203Z" fill="white"></path> <path d="M206.715 108.844H201.536C200.769 108.844 200.033 109.149 199.491 109.691C198.948 110.234 198.644 110.969 198.644 111.737C198.644 112.504 198.948 113.24 199.491 113.782C200.033 114.325 200.769 114.63 201.536 114.63H206.715C207.482 114.63 208.218 114.325 208.76 113.782C209.303 113.24 209.608 112.504 209.608 111.737C209.608 110.969 209.303 110.234 208.76 109.691C208.218 109.149 207.482 108.844 206.715 108.844V108.844Z" fill="white"></path> <path d="M206.715 117.483H201.536C200.769 117.483 200.033 117.788 199.491 118.331C198.948 118.873 198.644 119.609 198.644 120.376C198.644 121.144 198.948 121.879 199.491 122.422C200.033 122.964 200.769 123.269 201.536 123.269H206.715C207.482 123.269 208.218 122.964 208.76 122.422C209.303 121.879 209.608 121.144 209.608 120.376C209.608 119.609 209.303 118.873 208.76 118.331C208.218 117.788 207.482 117.483 206.715 117.483V117.483Z" fill="white"></path> <path d="M242.578 171.822C242.325 169.784 241.796 167.79 241.005 165.895C241.609 165.485 242.035 164.861 242.198 164.15C242.361 163.439 242.249 162.692 241.884 162.06C241.519 161.428 240.929 160.957 240.232 160.742C239.534 160.528 238.781 160.585 238.124 160.902C236.879 159.264 235.42 157.801 233.785 156.551C234.091 155.897 234.141 155.151 233.926 154.462C233.71 153.772 233.244 153.188 232.62 152.825C231.995 152.461 231.257 152.345 230.551 152.498C229.845 152.651 229.222 153.063 228.804 153.653C226.904 152.854 224.903 152.318 222.858 152.061C222.8 151.355 222.484 150.695 221.971 150.206C221.457 149.717 220.782 149.435 220.074 149.411C219.365 149.388 218.673 149.626 218.129 150.08C217.584 150.533 217.225 151.171 217.121 151.872H212.243C212.14 151.189 211.795 150.564 211.27 150.113C210.746 149.662 210.078 149.414 209.386 149.414C208.695 149.414 208.026 149.662 207.502 150.113C206.978 150.564 206.633 151.189 206.529 151.872H201.65C201.547 151.189 201.202 150.564 200.678 150.113C200.153 149.662 199.485 149.414 198.793 149.414C198.102 149.414 197.433 149.662 196.909 150.113C196.385 150.564 196.04 151.189 195.937 151.872H191.057C190.967 151.276 190.693 150.723 190.273 150.29C189.853 149.857 189.307 149.567 188.714 149.459C188.12 149.352 187.508 149.433 186.963 149.691C186.418 149.95 185.967 150.372 185.674 150.899V138.819H188.032C188.799 138.819 189.535 138.514 190.077 137.971C190.62 137.429 190.925 136.693 190.925 135.926V134.041H234.8C237.357 134.038 239.808 133.021 241.616 131.213C243.423 129.405 244.44 126.954 244.443 124.398V96.7417C244.44 94.1851 243.423 91.7341 241.616 89.9263C239.808 88.1185 237.357 87.1017 234.8 87.0987H229.709V82.8462C229.707 81.5679 229.199 80.3423 228.295 79.4384C227.391 78.5345 226.165 78.0261 224.887 78.0247H223.6V56.6173C223.6 55.8501 223.295 55.1142 222.753 54.5717C222.21 54.0292 221.474 53.7244 220.707 53.7244H217.925V43.8645C217.925 43.4912 218.074 43.1333 218.338 42.8694C218.602 42.6054 218.96 42.457 219.333 42.4566H220.948C221.715 42.4566 222.451 42.1518 222.994 41.6093C223.536 41.0668 223.841 40.3309 223.841 39.5637C223.841 38.7965 223.536 38.0606 222.994 37.5181C222.451 36.9756 221.715 36.6708 220.948 36.6708H219.333C217.426 36.673 215.597 37.4316 214.249 38.7802C212.9 40.1288 212.141 41.9573 212.139 43.8645V53.7244H209.825C209.058 53.7244 208.322 54.0292 207.779 54.5717C207.237 55.1142 206.932 55.8501 206.932 56.6173V78.0247H205.495C204.217 78.0262 202.991 78.5347 202.088 79.4386C201.184 80.3424 200.675 81.5679 200.674 82.8462V87.0987H190.925V61.9932C190.922 59.5888 189.966 57.2835 188.265 55.5833C186.565 53.8831 184.26 52.9267 181.855 52.924H135.256C134.793 52.9238 134.337 53.0346 133.926 53.2471C133.515 53.4596 133.161 53.7676 132.893 54.1453L131.322 56.3671L111.279 45.4016C104.264 41.5687 96.4256 39.4913 88.4334 39.3467L40.4172 8.65558C40.4897 8.23433 40.5268 7.80774 40.5281 7.3803C40.5113 6.03256 40.1304 4.71445 39.4256 3.56556C38.7208 2.41666 37.7184 1.47976 36.5246 0.85406C35.3308 0.228364 33.99 -0.0628298 32.6442 0.0113193C31.2984 0.0854683 29.9977 0.522199 28.8799 1.27526C27.7621 2.02832 26.8687 3.06968 26.2944 4.28904C25.7201 5.50841 25.4863 6.86039 25.6177 8.20181C25.749 9.54323 26.2408 10.8241 27.0407 11.9089C27.8407 12.9937 28.9192 13.8419 30.1619 14.3637V27.7318H27.4329C26.6657 27.7318 25.9299 28.0366 25.3873 28.5791C24.8448 29.1216 24.54 29.8574 24.54 30.6247V55.3107L7.21548 103.211C5.24935 103.303 3.39661 104.158 2.0499 105.594C0.703181 107.029 -0.0316768 108.933 0.00104789 110.901C0.0337725 112.869 0.831508 114.747 2.2252 116.137C3.6189 117.527 5.49903 118.319 7.46717 118.347C8.14973 118.346 8.82884 118.25 9.48496 118.062L19.5136 132.463L24.7908 148.138L22.3265 165.621C22.26 166.093 22.3111 166.575 22.4754 167.022C22.6397 167.47 22.912 167.87 23.2681 168.186L36.3069 179.788C41.1422 184.129 47.4028 186.545 53.901 186.576C56.0369 186.577 58.1643 186.307 60.2325 185.774C70.1204 183.225 77.3821 175.114 81.2315 162.32C82.9691 156.428 83.9206 150.332 84.0613 144.19C84.0613 143.671 83.9217 143.161 83.6571 142.715C83.3924 142.268 83.0126 141.901 82.5573 141.652C82.102 141.403 81.5881 141.281 81.0694 141.299C80.5507 141.316 80.0463 141.473 79.6091 141.753L68.863 148.63L50.4931 144.735L49.2767 133.723H49.2738C49.2042 133.087 48.9258 132.492 48.4821 132.031L41.2074 124.497C40.8202 124.098 40.4044 123.727 39.9635 123.388L44.7343 64.8804L51.1778 60.2599L87.8399 63.4947L111.803 87.7756C110.899 90.1998 110.147 92.6779 109.551 95.1954C109.188 96.7142 108.876 98.2913 108.633 99.8838C108.002 103.98 107.684 108.118 107.683 112.263V135.926C107.683 136.694 107.988 137.429 108.53 137.972C109.073 138.514 109.809 138.819 110.576 138.819H137.242V150.219C136.86 149.851 136.385 149.596 135.868 149.481C135.351 149.366 134.812 149.395 134.31 149.566C133.809 149.736 133.364 150.042 133.024 150.448C132.685 150.855 132.464 151.347 132.385 151.871H127.505C127.402 151.187 127.057 150.563 126.533 150.112C126.009 149.661 125.34 149.413 124.649 149.413C123.957 149.413 123.288 149.661 122.764 150.112C122.24 150.563 121.895 151.187 121.792 151.871H116.199C116.094 151.171 115.736 150.533 115.192 150.08C114.649 149.626 113.958 149.388 113.25 149.41C112.542 149.432 111.867 149.714 111.353 150.2C110.839 150.687 110.522 151.346 110.461 152.051C108.412 152.303 106.406 152.835 104.501 153.633C104.083 153.047 103.461 152.638 102.757 152.487C102.053 152.335 101.317 152.451 100.695 152.813C100.072 153.175 99.6063 153.756 99.3891 154.442C99.172 155.129 99.2188 155.872 99.5204 156.526C97.8764 157.775 96.4097 159.241 95.1603 160.884C94.507 160.586 93.7659 160.541 93.0814 160.759C92.3968 160.976 91.8178 161.441 91.4569 162.062C91.096 162.683 90.9791 163.416 91.1289 164.119C91.2787 164.821 91.6846 165.443 92.2674 165.863C91.4673 167.768 90.9335 169.775 90.6812 171.826C89.9642 171.895 89.2989 172.229 88.8151 172.762C88.3314 173.296 88.0641 173.991 88.0656 174.711C88.067 175.431 88.3371 176.125 88.823 176.657C89.3088 177.188 89.9755 177.52 90.6927 177.586C90.9534 179.631 91.4923 181.631 92.2944 183.53C91.6931 183.943 91.2702 184.568 91.1108 185.28C90.9515 185.992 91.0674 186.738 91.4354 187.368C91.8033 187.997 92.396 188.465 93.0944 188.675C93.7927 188.886 94.5449 188.825 95.1999 188.504C96.4497 190.135 97.9125 191.59 99.5493 192.832C99.2242 193.491 99.1621 194.248 99.3755 194.95C99.5889 195.653 100.062 196.248 100.698 196.614C101.335 196.98 102.086 197.09 102.801 196.922C103.516 196.753 104.139 196.319 104.545 195.707C106.436 196.494 108.426 197.02 110.459 197.272C110.499 197.993 110.809 198.673 111.326 199.178C111.843 199.683 112.531 199.975 113.253 199.998C113.975 200.021 114.68 199.772 115.228 199.301C115.776 198.83 116.128 198.171 116.214 197.453H121.779C121.867 198.152 122.207 198.795 122.736 199.262C123.264 199.728 123.945 199.985 124.649 199.985C125.354 199.985 126.035 199.728 126.563 199.262C127.092 198.795 127.432 198.152 127.52 197.453H132.373C132.46 198.153 132.8 198.796 133.329 199.263C133.857 199.729 134.538 199.987 135.243 199.987C135.948 199.987 136.629 199.729 137.157 199.263C137.686 198.796 138.026 198.153 138.113 197.453H142.961C143.048 198.153 143.388 198.796 143.917 199.263C144.445 199.729 145.126 199.987 145.831 199.987C146.536 199.987 147.217 199.729 147.745 199.263C148.274 198.796 148.614 198.153 148.701 197.453H153.553C153.641 198.152 153.982 198.795 154.51 199.262C155.038 199.728 155.719 199.985 156.424 199.985C157.128 199.985 157.809 199.728 158.337 199.262C158.866 198.795 159.206 198.152 159.294 197.453H164.146C164.234 198.152 164.574 198.795 165.103 199.262C165.631 199.728 166.312 199.985 167.016 199.985C167.721 199.985 168.401 199.728 168.93 199.262C169.458 198.795 169.799 198.152 169.887 197.453H174.738C174.826 198.153 175.166 198.796 175.695 199.263C176.223 199.729 176.904 199.987 177.609 199.987C178.314 199.987 178.995 199.729 179.523 199.263C180.052 198.796 180.392 198.153 180.479 197.453H185.332C185.42 198.152 185.76 198.795 186.288 199.262C186.817 199.728 187.497 199.985 188.202 199.985C188.907 199.985 189.587 199.728 190.115 199.262C190.644 198.795 190.984 198.152 191.072 197.453H195.925C196.013 198.152 196.353 198.795 196.881 199.262C197.41 199.728 198.09 199.985 198.795 199.985C199.499 199.985 200.18 199.728 200.708 199.262C201.237 198.795 201.577 198.152 201.665 197.453H206.517C206.605 198.152 206.946 198.795 207.474 199.262C208.002 199.728 208.683 199.985 209.388 199.985C210.092 199.985 210.773 199.728 211.301 199.262C211.83 198.795 212.17 198.152 212.258 197.453H217.11C217.196 198.172 217.548 198.831 218.097 199.303C218.646 199.774 219.352 200.022 220.075 199.998C220.797 199.975 221.485 199.681 222.002 199.174C222.519 198.668 222.827 197.987 222.866 197.264C224.894 197.009 226.879 196.479 228.765 195.688C229.169 196.309 229.796 196.752 230.517 196.924C231.238 197.096 231.998 196.984 232.638 196.611C233.279 196.239 233.752 195.634 233.959 194.922C234.167 194.21 234.092 193.446 233.751 192.788C235.378 191.551 236.83 190.101 238.07 188.477C238.727 188.815 239.489 188.888 240.198 188.681C240.908 188.474 241.511 188.003 241.884 187.365C242.256 186.727 242.37 185.97 242.201 185.25C242.033 184.531 241.595 183.903 240.977 183.497C241.774 181.609 242.309 179.621 242.569 177.589C243.301 177.543 243.989 177.22 244.491 176.685C244.994 176.15 245.275 175.444 245.276 174.711C245.277 173.977 244.999 173.27 244.498 172.733C243.997 172.197 243.311 171.871 242.579 171.823L242.578 171.822ZM212.718 59.5102H217.814V78.0247H212.718V59.5102ZM206.459 83.8105H223.923V87.0987H206.459V83.8105ZM190.925 92.8845H234.8C235.823 92.8856 236.803 93.2924 237.526 94.0155C238.249 94.7386 238.656 95.719 238.657 96.7417V124.398C238.656 125.42 238.249 126.401 237.526 127.124C236.803 127.847 235.823 128.254 234.8 128.255H190.925V92.8845ZM8.52789 112.159C8.23411 112.416 7.85753 112.559 7.46717 112.561C7.01034 112.535 6.58078 112.335 6.26656 112.003C5.95234 111.67 5.77728 111.23 5.77728 110.772C5.77728 110.315 5.95234 109.874 6.26656 109.542C6.58078 109.209 7.01034 109.009 7.46717 108.983C7.66871 108.983 7.8684 109.022 8.05539 109.097L8.06214 109.1C8.38939 109.239 8.66794 109.472 8.86246 109.77C9.05697 110.068 9.15868 110.417 9.15468 110.772C9.15611 111.035 9.10086 111.295 8.99269 111.534C8.88452 111.774 8.72598 111.987 8.52789 112.159V112.159ZM24.54 124.642L22.5232 126.658L14.0051 114.424C14.8076 112.959 15.1069 111.27 14.8571 109.619C14.6073 107.967 13.8222 106.443 12.6223 105.28L24.54 72.3218V124.642ZM164.223 58.7098H181.855C182.726 58.7108 183.56 59.0571 184.176 59.6726C184.792 60.2882 185.138 61.1227 185.139 61.9932V102.923H164.223V58.7098ZM164.223 108.709H185.139V114.967H164.223V108.709ZM136.752 58.7098H158.437V102.923H139.417L132.667 94.1096C132.397 93.757 132.049 93.4714 131.651 93.2748C131.253 93.0782 130.814 92.976 130.37 92.9761H116.147C116.641 91.3575 117.204 89.7457 117.847 88.1585C119.606 83.851 121.853 79.7593 124.544 75.9635L136.752 58.7098ZM35.9477 14.3671C36.4479 14.155 36.923 13.8881 37.3642 13.5711L77.6685 39.3323H51.6175L41.2262 28.6112C40.9566 28.333 40.6337 28.1118 40.2769 27.9607C39.9201 27.8097 39.5366 27.7318 39.1491 27.7318H35.9477V14.3671ZM33.0548 5.59635C33.5148 5.60997 33.9508 5.80536 34.2671 6.13973C34.5833 6.4741 34.7542 6.92019 34.7423 7.3803C34.7436 7.72146 34.6523 8.05658 34.4781 8.3499C34.3312 8.59728 34.1231 8.80265 33.8738 8.94622C33.6245 9.08978 33.3425 9.1667 33.0548 9.16955C32.5986 9.14357 32.1696 8.94405 31.8558 8.6119C31.5421 8.27974 31.3672 7.84012 31.3672 7.38319C31.3672 6.92626 31.5421 6.48664 31.8558 6.15448C32.1696 5.82232 32.5986 5.6228 33.0548 5.59683V5.59635ZM42.03 133.679L36.2186 137.987C35.9134 138.213 35.6558 138.497 35.4603 138.823C35.2649 139.149 35.1356 139.51 35.0798 139.885C35.0239 140.261 35.0426 140.644 35.1348 141.013C35.227 141.381 35.3909 141.728 35.6172 142.033C35.8434 142.339 36.1275 142.596 36.4533 142.792C36.7791 142.987 37.1403 143.117 37.516 143.172C37.8918 143.228 38.2749 143.21 38.6435 143.117C39.0121 143.025 39.3589 142.861 39.6641 142.635L44.0777 139.363L44.9716 147.449C45.0383 148.054 45.2942 148.622 45.7027 149.073C46.1112 149.524 46.6515 149.835 47.2468 149.961L68.823 154.537C69.5666 154.694 70.3422 154.553 70.9825 154.143L77.8864 149.725C76.8401 158.876 72.9834 176.513 58.7875 180.173C55.5335 180.978 52.1312 180.97 48.881 180.149C45.6309 179.328 42.6328 177.72 40.1515 175.466L28.2719 164.895L30.4468 149.467L32.792 147.728C33.4084 147.271 33.8181 146.588 33.9309 145.83C34.0437 145.071 33.8504 144.298 33.3935 143.681C32.9366 143.065 32.2535 142.655 31.4946 142.543C30.7357 142.43 29.963 142.623 29.3466 143.08L29.2241 143.171L25.4383 131.925L29.3123 128.088C30.1731 127.366 31.2293 126.916 32.3464 126.796C33.4635 126.677 34.5909 126.892 35.5851 127.415C36.1263 127.702 36.6185 128.073 37.0436 128.513L42.03 133.679ZM40.274 60.9586C39.9329 61.2033 39.6492 61.5193 39.4424 61.8846C39.2356 62.2499 39.1107 62.6558 39.0763 63.0742L34.3474 121.067C33.0045 120.9 31.6427 120.975 30.3258 121.286V33.5176H37.9245L43.5608 39.3323H41.5406C38.9662 39.3332 36.4909 40.325 34.6282 42.1021C32.7655 43.8792 31.6583 46.3051 31.5363 48.8766C31.4143 51.4481 32.2869 53.9679 33.973 55.9133C35.6592 57.8587 38.0294 59.0804 40.5922 59.325L42.3366 59.4793L40.274 60.9586ZM57.4177 55.0016L41.1279 53.5643C40.0463 53.4582 39.0469 52.94 38.3368 52.1173C37.6267 51.2946 37.2602 50.2302 37.3132 49.1447C37.3663 48.0592 37.8348 47.0356 38.6217 46.2861C39.4087 45.5365 40.4538 45.1183 41.5406 45.1181H57.4177V55.0016ZM91.2115 58.6741C90.7297 58.186 90.0901 57.8849 89.4068 57.8246L63.2035 55.5103V45.1181H87.5665C94.8833 45.124 102.082 46.9665 108.501 50.4766L127.959 61.122L119.822 72.6232C117.717 75.6028 115.856 78.7482 114.259 82.0284L91.2115 58.6741ZM113.468 133.033V120.753H118.615C119.383 120.753 120.118 120.448 120.661 119.905C121.204 119.363 121.508 118.627 121.508 117.86C121.508 117.093 121.204 116.357 120.661 115.814C120.118 115.272 119.383 114.967 118.615 114.967H113.468V112.262C113.469 108.413 113.763 104.57 114.349 100.766C114.453 100.093 114.572 99.4248 114.7 98.7619H128.943L135.694 107.575C135.964 107.927 136.311 108.213 136.71 108.41C137.108 108.606 137.546 108.709 137.991 108.709H158.438V114.967H128.347C127.58 114.967 126.844 115.272 126.301 115.814C125.759 116.357 125.454 117.093 125.454 117.86C125.454 118.627 125.759 119.363 126.301 119.905C126.844 120.448 127.58 120.753 128.347 120.753H185.139V133.033H113.468ZM179.888 138.819V150.53C179.542 150.083 179.072 149.748 178.536 149.566C178.001 149.384 177.424 149.363 176.877 149.506C176.33 149.649 175.837 149.949 175.459 150.37C175.081 150.79 174.834 151.312 174.75 151.871H169.872C169.769 151.188 169.423 150.564 168.899 150.112C168.375 149.661 167.706 149.413 167.015 149.413C166.323 149.413 165.655 149.661 165.131 150.112C164.606 150.564 164.261 151.188 164.158 151.871H159.279C159.176 151.188 158.831 150.564 158.306 150.112C157.782 149.661 157.114 149.413 156.422 149.413C155.731 149.413 155.062 149.661 154.538 150.112C154.014 150.564 153.668 151.188 153.565 151.871H148.686C148.587 151.211 148.262 150.606 147.767 150.158C147.272 149.71 146.637 149.447 145.97 149.415C145.303 149.383 144.645 149.582 144.109 149.98C143.573 150.377 143.191 150.949 143.028 151.596V138.819L179.888 138.819ZM231.979 186.671C230.407 188.256 228.537 189.514 226.476 190.372C224.416 191.229 222.205 191.669 219.973 191.667H113.284C108.774 191.667 104.449 189.875 101.26 186.686C98.0705 183.497 96.2789 179.172 96.2789 174.662C96.2789 170.152 98.0705 165.826 101.26 162.637C104.449 159.448 108.774 157.656 113.284 157.656H219.974C223.337 157.653 226.626 158.648 229.423 160.515C232.22 162.383 234.4 165.039 235.685 168.147C236.971 171.254 237.306 174.674 236.646 177.972C235.986 181.269 234.362 184.297 231.98 186.671H231.979Z" fill="white"></path> <path d="M125.869 172.034C125.783 171.64 125.68 171.255 125.559 170.877C125.907 170.422 126.113 169.875 126.151 169.303C126.188 168.732 126.055 168.162 125.768 167.666C125.481 167.17 125.053 166.771 124.539 166.519C124.025 166.266 123.448 166.172 122.88 166.248C122.613 165.954 122.332 165.674 122.038 165.406C122.114 164.838 122.02 164.261 121.768 163.747C121.515 163.233 121.116 162.805 120.62 162.518C120.124 162.231 119.555 162.098 118.983 162.135C118.411 162.172 117.864 162.378 117.409 162.727C117.031 162.606 116.645 162.503 116.252 162.417C116.034 161.888 115.663 161.436 115.187 161.118C114.711 160.799 114.151 160.629 113.579 160.629C113.006 160.629 112.447 160.799 111.971 161.118C111.495 161.436 111.124 161.888 110.905 162.417C110.512 162.503 110.127 162.606 109.748 162.727C109.294 162.378 108.746 162.172 108.175 162.135C107.603 162.098 107.033 162.231 106.538 162.518C106.042 162.805 105.643 163.232 105.39 163.746C105.138 164.26 105.043 164.838 105.119 165.406C104.826 165.673 104.545 165.954 104.278 166.248C103.71 166.172 103.132 166.266 102.618 166.518C102.104 166.771 101.676 167.17 101.39 167.666C101.103 168.162 100.969 168.731 101.006 169.303C101.044 169.874 101.25 170.422 101.598 170.877C101.477 171.255 101.374 171.641 101.289 172.034C100.76 172.252 100.307 172.623 99.9891 173.099C99.6709 173.575 99.501 174.135 99.501 174.707C99.501 175.28 99.6709 175.839 99.9891 176.315C100.307 176.791 100.76 177.162 101.289 177.381C101.374 177.774 101.477 178.16 101.598 178.538C101.25 178.992 101.044 179.54 101.006 180.112C100.969 180.683 101.103 181.253 101.39 181.749C101.677 182.245 102.104 182.644 102.619 182.896C103.133 183.149 103.71 183.243 104.278 183.166C104.545 183.46 104.825 183.74 105.119 184.008C105.043 184.576 105.138 185.153 105.39 185.667C105.643 186.181 106.042 186.609 106.538 186.896C107.033 187.182 107.603 187.316 108.175 187.279C108.746 187.241 109.294 187.035 109.748 186.687C110.126 186.808 110.512 186.912 110.905 186.997C111.124 187.526 111.495 187.978 111.971 188.296C112.447 188.615 113.006 188.785 113.579 188.785C114.151 188.785 114.711 188.615 115.187 188.296C115.663 187.978 116.034 187.526 116.252 186.997C116.645 186.912 117.031 186.808 117.409 186.687C117.864 187.035 118.411 187.241 118.983 187.279C119.554 187.316 120.124 187.182 120.62 186.896C121.116 186.609 121.515 186.181 121.767 185.667C122.02 185.153 122.114 184.576 122.038 184.008C122.332 183.741 122.612 183.46 122.879 183.166C123.447 183.243 124.025 183.148 124.539 182.896C125.053 182.644 125.481 182.244 125.768 181.749C126.055 181.253 126.188 180.683 126.151 180.111C126.113 179.54 125.907 178.992 125.559 178.538C125.68 178.159 125.784 177.772 125.869 177.378C126.397 177.159 126.848 176.788 127.166 176.313C127.483 175.837 127.652 175.278 127.652 174.707C127.652 174.135 127.483 173.576 127.166 173.101C126.848 172.625 126.397 172.254 125.869 172.035V172.034ZM113.578 181.498C112.235 181.498 110.921 181.1 109.804 180.353C108.687 179.607 107.816 178.546 107.302 177.305C106.788 176.063 106.653 174.697 106.915 173.379C107.177 172.062 107.825 170.851 108.775 169.901C109.725 168.951 110.935 168.304 112.253 168.042C113.571 167.78 114.937 167.914 116.178 168.428C117.419 168.943 118.48 169.813 119.227 170.931C119.973 172.048 120.372 173.361 120.372 174.705C120.37 176.506 119.653 178.233 118.38 179.506C117.106 180.78 115.379 181.496 113.578 181.498Z" fill="white"></path> <path d="M229.67 166.248C229.403 165.954 229.122 165.673 228.829 165.405C228.905 164.837 228.81 164.26 228.558 163.746C228.305 163.232 227.906 162.804 227.41 162.517C226.915 162.231 226.345 162.097 225.773 162.134C225.202 162.172 224.654 162.378 224.2 162.726C223.822 162.605 223.435 162.502 223.043 162.417C222.824 161.888 222.453 161.435 221.977 161.117C221.501 160.799 220.942 160.629 220.369 160.629C219.797 160.629 219.237 160.799 218.761 161.117C218.285 161.435 217.914 161.888 217.696 162.417C217.303 162.502 216.918 162.605 216.539 162.726C216.084 162.378 215.537 162.172 214.965 162.134C214.393 162.097 213.824 162.23 213.328 162.517C212.832 162.804 212.433 163.232 212.18 163.746C211.928 164.26 211.834 164.838 211.91 165.406C211.617 165.673 211.336 165.953 211.068 166.247C210.5 166.171 209.923 166.265 209.409 166.518C208.895 166.77 208.467 167.17 208.18 167.665C207.893 168.161 207.76 168.731 207.797 169.302C207.834 169.874 208.04 170.422 208.389 170.876C208.268 171.254 208.165 171.64 208.079 172.033C207.55 172.252 207.098 172.623 206.78 173.099C206.461 173.575 206.292 174.134 206.292 174.707C206.292 175.279 206.461 175.839 206.78 176.315C207.098 176.791 207.55 177.162 208.079 177.38C208.165 177.773 208.268 178.159 208.389 178.537C208.04 178.992 207.834 179.54 207.797 180.111C207.76 180.683 207.893 181.253 208.18 181.748C208.467 182.244 208.895 182.643 209.409 182.896C209.923 183.148 210.501 183.242 211.069 183.166C211.336 183.459 211.616 183.74 211.91 184.007C211.834 184.575 211.928 185.152 212.181 185.667C212.433 186.181 212.833 186.608 213.328 186.895C213.824 187.182 214.394 187.315 214.965 187.278C215.537 187.241 216.084 187.035 216.539 186.686C216.917 186.808 217.303 186.911 217.696 186.996C217.914 187.525 218.285 187.978 218.761 188.296C219.237 188.614 219.797 188.784 220.369 188.784C220.942 188.784 221.501 188.614 221.977 188.296C222.453 187.978 222.824 187.525 223.043 186.996C223.436 186.911 223.821 186.808 224.2 186.686C224.654 187.035 225.202 187.241 225.773 187.278C226.345 187.315 226.915 187.182 227.41 186.895C227.906 186.608 228.305 186.181 228.558 185.667C228.81 185.152 228.905 184.575 228.829 184.007C229.122 183.74 229.402 183.46 229.67 183.166C230.238 183.242 230.815 183.148 231.33 182.896C231.844 182.643 232.271 182.244 232.559 181.748C232.846 181.253 232.979 180.683 232.942 180.111C232.905 179.54 232.699 178.992 232.35 178.537C232.471 178.158 232.574 177.773 232.659 177.38C233.188 177.162 233.641 176.791 233.959 176.315C234.277 175.839 234.447 175.279 234.447 174.707C234.447 174.134 234.277 173.575 233.959 173.099C233.641 172.623 233.188 172.252 232.659 172.033C232.573 171.64 232.47 171.254 232.35 170.876C232.698 170.422 232.904 169.874 232.941 169.303C232.978 168.731 232.845 168.161 232.558 167.666C232.271 167.17 231.844 166.771 231.33 166.518C230.815 166.266 230.238 166.172 229.67 166.248V166.248ZM220.37 181.498C219.026 181.498 217.713 181.1 216.596 180.353C215.478 179.607 214.608 178.546 214.093 177.305C213.579 176.063 213.445 174.697 213.707 173.379C213.969 172.062 214.616 170.851 215.566 169.901C216.516 168.951 217.727 168.304 219.044 168.042C220.362 167.78 221.728 167.914 222.97 168.428C224.211 168.943 225.272 169.813 226.018 170.931C226.765 172.048 227.163 173.361 227.163 174.705C227.161 176.506 226.445 178.233 225.171 179.506C223.898 180.78 222.171 181.496 220.37 181.498V181.498Z" fill="white"></path> <path d="M161.466 172.034C161.38 171.641 161.277 171.255 161.156 170.877C161.505 170.422 161.711 169.875 161.748 169.303C161.785 168.732 161.652 168.162 161.365 167.666C161.078 167.17 160.65 166.771 160.136 166.519C159.622 166.266 159.045 166.172 158.477 166.248C158.21 165.954 157.929 165.673 157.635 165.406C157.711 164.838 157.617 164.26 157.365 163.746C157.112 163.232 156.713 162.804 156.217 162.517C155.722 162.23 155.152 162.097 154.58 162.134C154.009 162.172 153.461 162.378 153.007 162.726C152.628 162.605 152.243 162.502 151.849 162.417C151.631 161.888 151.26 161.435 150.784 161.117C150.308 160.799 149.748 160.629 149.176 160.629C148.603 160.629 148.044 160.799 147.568 161.117C147.092 161.435 146.721 161.888 146.502 162.417C146.11 162.502 145.724 162.605 145.345 162.726C144.891 162.378 144.343 162.172 143.772 162.134C143.2 162.097 142.631 162.231 142.135 162.517C141.639 162.804 141.24 163.232 140.987 163.746C140.735 164.26 140.641 164.837 140.717 165.405C140.424 165.673 140.142 165.954 139.875 166.247C139.307 166.171 138.73 166.265 138.215 166.518C137.701 166.77 137.274 167.17 136.987 167.665C136.7 168.161 136.566 168.731 136.604 169.302C136.641 169.874 136.847 170.422 137.196 170.876C137.074 171.254 136.971 171.64 136.886 172.033C136.357 172.252 135.905 172.623 135.586 173.099C135.268 173.575 135.098 174.134 135.098 174.707C135.098 175.279 135.268 175.839 135.586 176.315C135.905 176.791 136.357 177.162 136.886 177.38C136.971 177.773 137.074 178.159 137.196 178.537C136.847 178.992 136.641 179.54 136.604 180.111C136.566 180.683 136.7 181.253 136.987 181.748C137.274 182.244 137.701 182.643 138.216 182.896C138.73 183.148 139.308 183.242 139.875 183.166C140.142 183.46 140.424 183.74 140.717 184.007C140.641 184.575 140.735 185.152 140.987 185.667C141.24 186.181 141.639 186.608 142.135 186.895C142.631 187.182 143.2 187.315 143.772 187.278C144.343 187.241 144.891 187.035 145.345 186.686C145.724 186.808 146.109 186.911 146.502 186.996C146.721 187.525 147.092 187.978 147.568 188.296C148.044 188.614 148.603 188.784 149.176 188.784C149.748 188.784 150.308 188.614 150.784 188.296C151.26 187.978 151.631 187.525 151.849 186.996C152.242 186.911 152.628 186.808 153.007 186.686C153.461 187.035 154.009 187.241 154.58 187.278C155.152 187.315 155.721 187.182 156.217 186.895C156.713 186.608 157.112 186.181 157.365 185.667C157.617 185.152 157.711 184.575 157.635 184.007C157.929 183.74 158.209 183.46 158.477 183.166C159.044 183.242 159.622 183.148 160.136 182.896C160.65 182.643 161.078 182.244 161.365 181.748C161.652 181.252 161.785 180.683 161.748 180.111C161.711 179.539 161.505 178.992 161.156 178.537C161.277 178.159 161.38 177.773 161.466 177.38C161.995 177.162 162.447 176.791 162.766 176.315C163.084 175.839 163.254 175.279 163.254 174.707C163.254 174.134 163.084 173.575 162.766 173.099C162.447 172.623 161.995 172.252 161.466 172.033V172.034ZM149.175 181.498C147.832 181.498 146.518 181.1 145.401 180.353C144.284 179.607 143.413 178.546 142.899 177.305C142.385 176.063 142.25 174.697 142.513 173.379C142.775 172.062 143.422 170.851 144.372 169.901C145.322 168.951 146.532 168.304 147.85 168.042C149.168 167.78 150.534 167.914 151.775 168.428C153.017 168.943 154.078 169.813 154.824 170.931C155.571 172.048 155.969 173.361 155.969 174.705C155.967 176.506 155.25 178.233 153.977 179.506C152.703 180.78 150.977 181.496 149.175 181.498V181.498Z" fill="white"></path> <path d="M197.063 172.034C196.977 171.641 196.874 171.255 196.754 170.877C197.102 170.422 197.308 169.874 197.345 169.303C197.383 168.731 197.249 168.162 196.962 167.666C196.675 167.17 196.248 166.771 195.734 166.518C195.219 166.266 194.642 166.172 194.074 166.248C193.807 165.954 193.527 165.673 193.232 165.406C193.309 164.838 193.214 164.26 192.962 163.746C192.71 163.232 192.31 162.804 191.814 162.517C191.319 162.23 190.749 162.097 190.177 162.134C189.606 162.172 189.058 162.378 188.604 162.726C188.225 162.605 187.839 162.502 187.447 162.417C187.228 161.888 186.857 161.435 186.381 161.117C185.905 160.799 185.346 160.629 184.773 160.629C184.201 160.629 183.641 160.799 183.165 161.117C182.689 161.435 182.318 161.888 182.1 162.417C181.707 162.502 181.321 162.605 180.942 162.726C180.488 162.378 179.94 162.172 179.369 162.134C178.797 162.097 178.228 162.231 177.732 162.517C177.236 162.804 176.837 163.232 176.584 163.746C176.332 164.26 176.238 164.837 176.314 165.405C176.021 165.673 175.74 165.953 175.472 166.247C174.904 166.171 174.327 166.265 173.813 166.518C173.298 166.77 172.871 167.17 172.584 167.665C172.297 168.161 172.164 168.731 172.201 169.302C172.238 169.874 172.444 170.422 172.793 170.876C172.672 171.254 172.568 171.64 172.483 172.033C171.954 172.252 171.502 172.623 171.183 173.099C170.865 173.575 170.695 174.134 170.695 174.707C170.695 175.279 170.865 175.839 171.183 176.315C171.502 176.791 171.954 177.162 172.483 177.38C172.568 177.773 172.672 178.159 172.793 178.537C172.444 178.992 172.238 179.54 172.201 180.111C172.164 180.683 172.297 181.253 172.584 181.748C172.871 182.244 173.299 182.643 173.813 182.896C174.327 183.148 174.905 183.242 175.472 183.166C175.74 183.459 176.02 183.74 176.314 184.007C176.238 184.575 176.332 185.152 176.584 185.667C176.837 186.181 177.236 186.608 177.732 186.895C178.228 187.182 178.797 187.315 179.369 187.278C179.94 187.241 180.488 187.035 180.942 186.686C181.321 186.808 181.707 186.911 182.1 186.996C182.318 187.525 182.689 187.978 183.165 188.296C183.641 188.614 184.201 188.784 184.773 188.784C185.346 188.784 185.905 188.614 186.381 188.296C186.857 187.978 187.228 187.525 187.447 186.996C187.84 186.911 188.225 186.808 188.604 186.686C189.058 187.035 189.606 187.241 190.177 187.278C190.749 187.315 191.318 187.182 191.814 186.895C192.31 186.608 192.709 186.181 192.962 185.667C193.214 185.152 193.308 184.575 193.232 184.007C193.526 183.74 193.807 183.46 194.074 183.166C194.641 183.242 195.219 183.148 195.733 182.896C196.248 182.643 196.675 182.244 196.962 181.748C197.249 181.253 197.383 180.683 197.346 180.111C197.308 179.54 197.102 178.992 196.754 178.537C196.875 178.159 196.978 177.773 197.063 177.38C197.592 177.162 198.045 176.791 198.363 176.315C198.681 175.839 198.851 175.279 198.851 174.707C198.851 174.134 198.681 173.575 198.363 173.099C198.045 172.623 197.592 172.252 197.063 172.033V172.034ZM184.773 181.498C183.429 181.498 182.116 181.1 180.998 180.353C179.881 179.607 179.01 178.546 178.496 177.305C177.982 176.063 177.848 174.697 178.11 173.379C178.372 172.062 179.019 170.851 179.969 169.901C180.919 168.951 182.129 168.304 183.447 168.042C184.765 167.78 186.131 167.914 187.372 168.428C188.614 168.943 189.675 169.813 190.421 170.931C191.168 172.048 191.566 173.361 191.566 174.705C191.564 176.506 190.848 178.233 189.574 179.506C188.301 180.78 186.574 181.496 184.773 181.498V181.498Z" fill="white"></path> </svg> 