<?xml version="1.0" encoding="UTF-8"?> <svg xmlns="http://www.w3.org/2000/svg" width="198" height="200" viewBox="0 0 198 200" fill="none"> <path d="M39.4043 52.2365C28.5227 52.2365 19.7021 43.4147 19.7021 32.5343C19.7021 21.6527 28.5227 12.8335 39.4043 12.8335C50.2846 12.8335 59.1051 21.6527 59.1051 32.5343C59.0949 43.4095 50.2795 52.2249 39.4043 52.2365ZM39.4043 19.4004C32.1495 19.4004 26.2691 25.2795 26.2691 32.5343C26.2691 39.7879 32.1495 45.6695 39.4043 45.6695C46.6578 45.6695 52.5382 39.7879 52.5382 32.5343C52.5382 25.2795 46.6578 19.4004 39.4043 19.4004Z" fill="white"></path> <path d="M118.21 144.178V163.88H82.0914V118.825L62.3892 112.257V78.506H91.9412C101.004 78.4944 108.349 71.1497 108.36 62.0879V55.521H16.418C7.35493 55.53 0.0115503 62.8746 0 71.939V108.058C0 113.498 4.41091 117.909 9.85107 117.909H16.418V177.014H0V200H6.56823V183.581H52.5382V200H59.1051V170.447H118.21V200H124.778V150.745H190.451V200H197.017V144.178H118.21ZM16.418 75.2218V111.342H9.85107C8.03768 111.342 6.56823 109.871 6.56823 108.058V71.939C6.56823 66.4963 10.9779 62.0879 16.418 62.0879H101.792C101.792 67.5281 97.3813 71.939 91.9412 71.939H55.8223V116.993L75.5231 123.56V163.88H65.6734V128.767L32.836 116.454V177.014H22.9863V75.2218H16.418ZM52.5382 163.88V177.014H39.4043V125.931L59.1051 133.318V163.88H52.5382Z" fill="white"></path> <path d="M144.479 134.327H170.749V52.2366H189.762L157.615 0L125.468 52.2366H144.479V134.327ZM137.223 45.6696L157.615 12.5294L178.006 45.6696H164.182V127.76H151.048V45.6696H137.223Z" fill="white"></path> </svg> 