<?xml version="1.0" encoding="UTF-8"?> <svg xmlns="http://www.w3.org/2000/svg" width="162" height="200" viewBox="0 0 162 200" fill="none"> <path d="M140.255 133.166C147.217 138.221 150.506 153.139 151.191 158.472L156.382 197.632L161.807 196.921L156.62 157.714C156.51 156.848 153.764 136.195 143.495 128.786C140.055 126.487 136.369 124.576 132.5 123.093C132.267 122.915 132.016 122.774 131.738 122.678L129.48 121.88C126.068 120.561 122.505 119.329 119.083 118.262L116.971 117.523C116.761 117.445 116.547 117.4 116.323 117.377C110.602 115.566 105.579 114.229 102.888 113.526V107.541C111.058 101.702 115.912 92.2764 115.903 82.2354V77.6277C116.816 77.9608 117.778 78.1341 118.741 78.1478C123.307 78.1478 127.007 74.448 127.007 69.8814V62.5091C127.007 60.5064 126.268 58.5766 124.941 57.0894C125.821 55.6843 126.268 54.0511 126.232 52.3996V49.2518C126.359 46.9571 125.634 44.6943 124.202 42.8923C123.458 42.1168 122.505 41.5602 121.455 41.3002C120.807 33.8321 117.263 11.9069 98.3531 3.3394H98.1889C93.2619 1.22717 87.9745 0.0957821 82.6232 0.00910336H81.0493C75.9307 -0.0958236 70.8349 0.707097 65.99 2.3768H65.8622C44.9224 10.0775 41.1496 33.4763 40.5566 41.2272C39.5027 41.4872 38.5447 42.0392 37.8057 42.8193C36.3047 44.5985 35.5201 46.8659 35.6159 49.1834V52.4224C35.5748 54.0739 36.0219 55.7025 36.8978 57.0985C35.5794 58.5994 34.8358 60.5292 34.8358 62.5319V69.9179C34.8358 74.4845 38.5401 78.1797 43.1022 78.1797C44.0739 78.1797 45.0274 78.0018 45.9352 77.6597V82.2856C45.9535 92.2126 50.7026 101.533 58.7226 107.381V113.526C49.0511 116.049 39.521 119.11 30.1916 122.71H30.0684C25.9352 124.256 21.9936 126.277 18.312 128.713C8.04288 136.195 5.30109 156.825 5.18704 157.646L0 196.875L5.42427 197.578L10.6113 158.349C11.3047 153.029 14.5849 138.13 21.4599 133.034C23.6451 131.578 25.9626 130.338 28.385 129.325V152.824C24.3887 154.293 19.3476 158.403 19.3476 167.08V197.29C19.3476 198.782 20.5566 200 22.0575 200H139.877C141.378 200 142.582 198.782 142.582 197.29V167.13C142.582 158.453 137.509 154.348 133.545 152.883V129.384C135.903 130.424 138.143 131.693 140.255 133.166ZM121.633 62.5091V69.9042C121.515 71.4644 120.141 72.6323 118.581 72.5091C117.194 72.3951 116.09 71.291 115.976 69.9042V62.5091C115.858 60.9443 117.016 59.5803 118.581 59.448C120.141 59.3248 121.515 60.4927 121.633 62.0529C121.651 62.2034 121.651 62.3586 121.633 62.5091ZM84.7537 5.56111C88.052 5.81202 91.3047 6.52826 94.4115 7.66877V21.396C92.1761 24.6122 88.6496 26.6788 84.7537 27.0529V5.56111ZM69.6761 6.91604C72.8148 6.01732 76.0584 5.52005 79.3339 5.43337V27.1259C75.438 26.7518 71.9024 24.6806 69.6761 21.4644V6.91604ZM45.8668 69.8814C45.7436 71.4416 44.3704 72.614 42.8148 72.4863C41.4279 72.3814 40.3239 71.2774 40.2099 69.8814V62.5091C40.0821 60.9443 41.25 59.5803 42.8148 59.448C44.3704 59.3248 45.7436 60.4927 45.8668 62.0529C45.8805 62.2034 45.8805 62.3586 45.8668 62.5091V69.8814ZM43.0292 54.229C42.5137 54.229 42.0119 54.2792 41.5146 54.3704C41.0949 53.8093 40.8942 53.1022 40.9672 52.3996V49.1149C40.9352 48.2527 41.1496 47.4042 41.6013 46.6697C41.7062 46.583 41.8431 46.5511 41.9845 46.5693H43.0292C44.5255 46.5693 45.7436 45.3513 45.7436 43.8503C45.7436 42.5867 46.0995 18.5356 64.2381 9.09669V22.1213C64.2381 22.5228 64.3294 22.9151 64.5027 23.2755C64.6898 23.6542 69.1104 32.6779 82.021 32.6779C94.927 32.6779 99.3659 23.6405 99.5438 23.2755C99.708 22.9151 99.8038 22.5228 99.7902 22.1213V10.4014C115.689 20.5474 116.068 42.6368 116.068 43.8503C116.068 45.3513 117.286 46.5693 118.777 46.5693H119.827C120.096 46.5693 120.155 46.5693 120.205 46.6697C120.666 47.4224 120.88 48.2892 120.839 49.1743V52.3996C120.912 53.1113 120.703 53.823 120.26 54.3704C117.6 53.8458 114.849 54.6852 112.943 56.6195H48.9006C47.3449 55.073 45.2327 54.2244 43.0474 54.2472L43.0292 54.229ZM51.2911 82.2856V62.0438H110.589V82.2856C110.566 96.5009 99.0374 108.006 84.8266 107.993H77.0164C62.8193 107.988 51.3093 96.4872 51.2911 82.2856ZM97.5319 110.689V114.699L80.9033 135.963L64.0876 114.699V110.575C68.1433 112.459 72.5547 113.431 77.0164 113.435H84.8266C89.2108 113.435 93.5447 112.495 97.5319 110.689ZM48.417 122.099C53.5858 120.52 58.0383 119.316 60.3467 118.713L80.9398 144.749L101.3 118.713C103.641 119.329 108.166 120.52 113.449 122.167V153.225H48.3577L48.417 122.099ZM137.167 167.13V194.626H24.7673V167.13C24.7673 158.946 30.8257 157.769 31.4735 157.655C32.8193 157.468 33.8093 156.318 33.8093 154.968V127.121C36.7883 125.963 39.9544 124.863 43.0292 123.869V155.94C43.0292 157.441 44.2427 158.659 45.7436 158.659H116.245C117.742 158.659 118.96 157.441 118.96 155.94V123.923L128.089 127.121V154.968C128.089 156.323 129.097 157.482 130.438 157.655C130.716 157.692 137.167 158.659 137.167 167.13Z" fill="white"></path> <path d="M31.0444 163.713H45.684V168.577H31.0444V163.713Z" fill="white"></path> <path d="M116.159 163.713H130.807V168.577H116.159V163.713Z" fill="white"></path> </svg> 